<svg width="512" height="512" viewBox="0 0 512 512" fill="none" xmlns="http://www.w3.org/2000/svg">
<rect width="512" height="512" rx="24" fill="url(#paint0_radial_9_2)"/>
<path d="M412.672 397.672V404.784H408.313C398.104 404.784 391.565 411.666 391.565 422.219V453.879H383.651V398.36H391.107L391.68 406.963C393.86 400.999 399.71 397.099 407.51 397.099C409.23 397.099 410.722 397.213 412.672 397.672Z" fill="white"/>
<path d="M339.665 455.255C327.85 455.255 320.853 448.602 320.853 438.852C320.853 428.643 328.653 422.219 341.615 421.187L359.968 419.696V417.86C359.968 406.963 353.43 403.522 345.286 403.522C335.651 403.522 329.915 407.881 329.915 415.337H322.689C322.689 404.096 331.865 396.869 345.515 396.869C358.363 396.869 367.768 403.293 367.768 417.975V453.878H361.115L360.083 444.128C356.642 451.125 349.071 455.255 339.665 455.255ZM341.501 448.831C353.201 448.831 359.968 440.687 359.968 428.643V425.661L343.565 426.922C333.127 427.84 328.883 432.428 328.883 438.622C328.883 445.39 333.93 448.831 341.501 448.831Z" fill="white"/>
<path d="M303.184 453.879H295.384V405.013H284.257V398.36H295.384V380.81H303.184V398.36H314.31V405.013H303.184V453.879Z" fill="white"/>
<path d="M236.012 438.278H243.583C243.583 444.702 248.4 448.717 256.2 448.717C264.803 448.717 269.851 445.046 269.851 439.081C269.851 434.493 267.556 431.855 261.018 430.249L251.497 427.84C241.862 425.431 237.159 420.384 237.159 412.813C237.159 403.063 245.303 396.869 257.233 396.869C268.933 396.869 276.504 403.293 276.848 413.616H269.162C268.933 407.193 264.459 403.407 257.003 403.407C249.203 403.407 244.844 406.734 244.844 412.699C244.844 416.943 247.827 419.925 253.906 421.416L263.427 423.825C273.062 426.234 277.421 430.708 277.421 438.737C277.421 448.717 268.933 455.255 256.315 455.255C243.812 455.255 236.012 448.602 236.012 438.278Z" fill="white"/>
<path d="M196.729 455.255C184.914 455.255 177.917 448.602 177.917 438.852C177.917 428.643 185.717 422.219 198.679 421.187L217.032 419.696V417.86C217.032 406.963 210.494 403.522 202.35 403.522C192.714 403.522 186.979 407.881 186.979 415.337H179.753C179.753 404.096 188.929 396.869 202.579 396.869C215.426 396.869 224.832 403.293 224.832 417.975V453.878H218.179L217.147 444.128C213.706 451.125 206.135 455.255 196.729 455.255ZM198.565 448.831C210.265 448.831 217.032 440.687 217.032 428.643V425.661L200.629 426.922C190.191 427.84 185.947 432.428 185.947 438.622C185.947 445.39 190.994 448.831 198.565 448.831Z" fill="white"/>
<path d="M136.048 455.14C113.107 455.14 100 438.049 100 412.813C100 387.578 113.336 370.372 136.507 370.372C154.172 370.372 165.059 381.039 168.385 397.328H159.553C156.112 385.513 149.01 378.286 136.163 378.286C118.154 378.286 108.603 392.051 108.603 412.813C108.603 433.461 118.154 447.225 136.163 447.225C149.125 447.225 156.456 440.228 160.012 429.216H168.844C165.059 444.702 150.721 455.14 136.048 455.14Z" fill="white"/>
<path d="M260.611 60.2451C273.098 72.3176 284.56 85.4053 294.88 99.3711C311.553 96.899 328.397 95.7623 345.252 95.9736L346.976 96L351.646 96.084L351.726 100.754C352.022 118.156 350.871 135.552 348.288 152.761C362.294 163.131 375.422 174.64 387.536 187.172L390.786 190.533L387.536 193.896C374.749 207.122 360.824 219.199 345.922 229.986L345.89 230.01L345.857 230.032C339.626 234.388 333.121 238.358 326.777 241.254C320.487 244.125 314.026 246.093 307.973 246.093C296.795 246.094 285.96 242.728 276.828 236.55C276.529 236.87 276.233 237.195 275.942 237.522C271.376 242.653 267.817 248.577 265.43 254.986C269.164 266.355 274.628 277.112 281.656 286.867H281.656L282.024 287.375H282.023C295.256 305.637 313.454 319.718 334.452 327.945L343.354 331.434L335.27 336.538C328.58 340.763 321.251 343.759 313.624 345.449C304.76 348.212 295.38 349.061 286.113 347.896C275.658 346.581 265.699 342.75 257.075 336.76C248.474 342.719 238.547 346.53 228.129 347.844C219.084 348.984 209.932 348.209 201.255 345.604C193.37 343.946 185.79 340.895 178.89 336.538L170.809 331.435L179.707 327.945C200.711 319.71 218.91 305.618 232.14 287.343L232.503 286.839C239.61 276.976 245.118 266.088 248.857 254.579C246.472 248.326 242.968 242.544 238.499 237.522C238.071 237.041 237.634 236.568 237.19 236.103C227.924 242.565 216.841 246.094 205.398 246.093C199.332 246.093 192.865 244.127 186.57 241.255C180.221 238.359 173.716 234.388 167.486 230.032L167.452 230.01L167.419 229.985C152.527 219.196 138.611 207.119 125.833 193.894L122.585 190.533L125.834 187.172C137.949 174.64 151.076 163.13 165.081 152.76C162.499 135.551 161.349 118.156 161.645 100.754L161.724 96.084L166.393 96C184.126 95.681 201.854 96.8545 219.389 99.5059C229.788 85.4909 241.328 72.3574 253.892 60.2412L257.253 57L260.611 60.2451ZM257.22 299.135C255.08 304.303 252.276 309.191 248.864 313.669C242.805 321.618 234.994 328.063 226.038 332.501C221.812 334.596 217.383 336.214 212.834 337.342C215.177 337.44 217.533 337.398 219.889 337.212C232.476 336.217 244.403 331.176 253.888 322.842L257.079 320.036L260.273 322.842C269.757 331.176 281.685 336.217 294.272 337.212C296.707 337.404 299.141 337.442 301.561 337.33C297.029 336.202 292.616 334.588 288.404 332.501C279.448 328.063 271.637 321.618 265.578 313.669C262.165 309.191 259.359 304.303 257.22 299.135ZM252.318 272.108C248.981 279.243 244.979 286.072 240.348 292.498L240.345 292.503L239.978 293.011L239.975 293.015C229.056 308.097 215.007 320.543 198.871 329.557C206.811 329.315 214.613 327.367 221.742 323.834C229.365 320.057 236.013 314.571 241.17 307.805C246.327 301.039 249.854 293.175 251.475 284.824C251.927 282.495 252.227 280.145 252.376 277.79C252.274 275.897 252.254 274.001 252.318 272.108ZM262.14 272.766C262.179 274.44 262.154 276.116 262.064 277.79C262.213 280.145 262.515 282.495 262.967 284.824C264.588 293.175 268.114 301.039 273.271 307.805C278.427 314.571 285.076 320.057 292.698 323.834C299.735 327.321 307.426 329.263 315.259 329.546C299.138 320.541 285.101 308.109 274.186 293.045L274.181 293.038L273.816 292.531L273.812 292.526C269.318 286.289 265.415 279.673 262.14 272.766ZM256.685 211.919C253.906 218.582 249.83 224.698 244.624 229.887C244.996 230.284 245.364 230.685 245.726 231.092C248.269 233.949 250.543 237.018 252.533 240.257L257.084 217.359L261.696 240.604C263.736 237.237 266.083 234.051 268.716 231.092C268.911 230.872 269.108 230.654 269.306 230.438C269.218 230.352 269.129 230.268 269.042 230.183C263.694 224.932 259.516 218.708 256.685 211.919ZM308.818 219.632C304.619 220.28 300.495 221.412 296.53 223.015C292.173 224.776 288.073 227.079 284.323 229.859C290.288 233.445 297.019 235.642 304.012 236.246C306.533 231.005 308.154 225.388 308.818 219.632ZM205.326 219.588C205.984 225.337 207.598 230.944 210.106 236.177C217.059 235.461 223.735 233.169 229.633 229.503C226.015 226.882 222.081 224.7 217.911 223.015C213.853 221.374 209.628 220.228 205.326 219.588ZM195.547 219.01C194.707 219.035 193.866 219.078 193.026 219.142C186.847 219.608 180.807 221.109 175.154 223.565C180.391 227.107 185.622 230.19 190.585 232.454C193.722 233.885 196.655 234.942 199.343 235.604C197.319 230.279 196.041 224.694 195.547 219.01ZM318.602 219.002C318.116 224.606 316.866 230.115 314.891 235.376C317.331 234.71 319.964 233.731 322.76 232.455C327.854 230.13 333.232 226.94 338.611 223.277C333.153 220.992 327.349 219.59 321.416 219.142C320.478 219.071 319.54 219.025 318.602 219.002ZM263.43 201.586C265.458 209.76 269.714 217.288 275.819 223.28C275.997 223.455 276.178 223.625 276.359 223.797C281.346 219.757 286.919 216.466 292.906 214.046C298.091 211.95 303.508 210.539 309.021 209.835C308.973 209.191 308.912 208.549 308.841 207.909C303.94 209.356 298.822 210.132 293.623 210.18C282.864 210.278 272.393 207.251 263.43 201.586ZM249.94 201.583C240.977 207.249 230.507 210.278 219.747 210.18C214.814 210.135 209.954 209.433 205.283 208.126C205.224 208.683 205.174 209.241 205.132 209.8C210.744 210.491 216.261 211.913 221.537 214.046C227.291 216.372 232.662 219.504 237.499 223.33C237.517 223.313 237.535 223.297 237.552 223.28C243.657 217.287 247.911 209.758 249.94 201.583ZM167.065 163.37C156.143 171.72 145.795 180.795 136.088 190.533C145.573 200.05 155.676 208.927 166.332 217.107C174.349 212.781 183.194 210.183 192.297 209.496C193.354 209.416 194.412 209.363 195.469 209.335C195.581 207.748 195.753 206.169 195.986 204.601C190.477 201.926 185.397 198.335 180.985 193.927L180.983 193.925C176.699 189.641 173.516 183.686 171.095 177.207C169.485 172.899 168.158 168.211 167.065 163.37ZM346.304 163.371C345.211 168.212 343.886 172.899 342.276 177.207C339.854 183.686 336.671 189.641 332.387 193.925L332.386 193.927C328.168 198.141 323.34 201.607 318.111 204.241C318.371 205.925 318.563 207.622 318.683 209.328C319.836 209.354 320.99 209.409 322.144 209.496C331.002 210.165 339.618 212.644 347.462 216.764C357.961 208.68 367.922 199.917 377.281 190.532C367.574 180.795 357.225 171.721 346.304 163.371ZM218.105 179.105C215.859 181.637 213.857 184.392 212.133 187.335C210.043 190.902 208.396 194.69 207.211 198.615C211.276 199.82 215.522 200.468 219.835 200.508C228.521 200.587 236.979 198.2 244.269 193.723C242.777 193.361 241.3 192.938 239.841 192.449V192.45C231.948 189.847 224.741 185.5 218.756 179.732L218.105 179.105ZM296.273 179.364C288.856 186.683 279.585 191.719 269.557 193.997C276.743 198.296 285.029 200.585 293.534 200.508C298.101 200.466 302.592 199.741 306.872 198.396C305.644 194.39 303.933 190.53 301.762 186.905C300.155 184.222 298.317 181.7 296.273 179.364ZM201.93 144.937C198.578 145.465 194.775 146.707 190.608 148.606C185.798 150.799 180.735 153.755 175.641 157.148C176.815 163.164 178.3 168.855 180.156 173.82C182.341 179.669 184.92 184.182 187.822 187.084L188.627 187.87C191.536 190.637 194.772 192.987 198.241 194.884C199.621 190.564 201.476 186.39 203.787 182.445C206.067 178.554 208.758 174.942 211.8 171.662C209.45 168.329 207.471 164.739 205.903 160.953C203.782 155.834 202.445 150.434 201.93 144.937ZM312.554 145.136C311.625 154.8 308.179 164.034 302.591 171.925C305.401 174.989 307.908 178.34 310.061 181.936C312.445 185.917 314.362 190.137 315.789 194.513C319.009 192.683 322.02 190.46 324.742 187.87L325.548 187.084C328.45 184.182 331.029 179.669 333.215 173.82C335.071 168.855 336.555 163.164 337.729 157.148C332.635 153.756 327.571 150.799 322.762 148.606C319.05 146.914 315.626 145.745 312.554 145.136ZM274.898 164.724C273.941 169.905 272.246 174.939 269.85 179.667C268.982 181.384 268.023 183.05 266.98 184.661C275.325 182.85 283.054 178.732 289.248 172.705C287.171 171.073 284.967 169.595 282.65 168.289C280.159 166.885 277.565 165.695 274.898 164.724ZM238.531 164.992C235.963 165.971 233.466 167.155 231.067 168.537C229.009 169.723 227.043 171.045 225.178 172.489L225.46 172.76L225.464 172.764C230.25 177.376 235.983 180.889 242.261 183.058L242.87 183.264L242.895 183.271C243.969 183.631 245.057 183.949 246.154 184.226C245.191 182.715 244.301 181.157 243.491 179.555C241.16 174.942 239.494 170.039 238.531 164.992ZM256.825 161.58C255.516 161.586 254.211 161.643 252.911 161.747C254.369 164.155 255.643 166.673 256.722 169.28C257.801 166.654 259.08 164.119 260.544 161.696C259.309 161.614 258.069 161.574 256.825 161.58ZM302.847 144.929C298.583 145.403 294.398 146.474 290.418 148.123C285.966 149.968 281.841 152.503 278.192 155.629C281.36 156.782 284.439 158.195 287.398 159.862C290.223 161.455 292.908 163.263 295.432 165.263C299.48 159.187 302.03 152.217 302.847 144.929ZM211.672 145.078C212.161 149.254 213.222 153.351 214.838 157.251C215.97 159.984 217.364 162.593 218.993 165.045C221.282 163.252 223.702 161.617 226.238 160.155C229.186 158.456 232.26 157.01 235.424 155.825C231.713 152.616 227.507 150.017 222.961 148.135C219.336 146.634 215.542 145.611 211.672 145.078ZM256.684 126.646C254.262 129.812 252.255 133.285 250.724 136.983C248.656 141.979 247.492 147.297 247.275 152.689C250.407 152.186 253.584 151.922 256.779 151.906C259.906 151.891 263.019 152.116 266.091 152.569C265.862 147.218 264.699 141.942 262.647 136.983C261.115 133.284 259.107 129.812 256.684 126.646ZM171.274 105.623C171.252 119.362 172.158 133.086 173.989 146.7C178.181 144.072 182.423 141.707 186.596 139.805C191.727 137.466 196.973 135.724 202.029 135.165C202.709 130.471 204.36 125.635 206.52 120.896C208.404 116.763 210.742 112.563 213.339 108.41C199.398 106.518 185.344 105.586 171.274 105.623ZM342.096 105.623C328.345 105.587 314.609 106.475 300.98 108.282C303.649 112.51 306.047 116.793 307.97 121.006C310.14 125.759 311.792 130.61 312.471 135.309C317.176 135.986 322.023 137.639 326.774 139.805C330.946 141.707 335.188 144.072 339.38 146.699C341.21 133.085 342.117 119.362 342.096 105.623ZM290.511 109.936C284.52 111.127 278.86 112.612 273.919 114.458C269.742 116.019 266.249 117.777 263.536 119.707C266.845 123.819 269.558 128.388 271.584 133.283C273.243 137.291 274.423 141.47 275.107 145.733C278.69 143.097 282.587 140.897 286.716 139.187C291.808 137.077 297.177 135.745 302.644 135.224C302.034 132.156 300.865 128.733 299.171 125.022C296.956 120.169 293.956 115.059 290.511 109.936ZM223.748 110.114C220.404 115.15 217.489 120.153 215.322 124.907C213.587 128.712 212.401 132.213 211.806 135.344C216.902 135.934 221.902 137.228 226.661 139.198C230.786 140.906 234.68 143.101 238.264 145.729C238.948 141.467 240.128 137.29 241.786 133.284C243.813 128.389 246.526 123.818 249.834 119.706C247.121 117.776 243.629 116.019 239.451 114.458C234.756 112.704 229.41 111.274 223.748 110.114ZM257.243 70.4971C247.454 80.231 238.333 90.6126 229.942 101.572C234.449 102.632 238.809 103.893 242.836 105.397C247.971 107.316 252.778 109.709 256.685 112.749C260.592 109.709 265.398 107.316 270.533 105.397C274.816 103.798 279.475 102.475 284.287 101.375C275.979 90.4863 266.944 80.1699 257.243 70.4971Z" fill="white"/>
<defs>
<radialGradient id="paint0_radial_9_2" cx="0" cy="0" r="1" gradientTransform="matrix(-448.5 529 -376.962 -687.438 256 256)" gradientUnits="userSpaceOnUse">
<stop stop-color="#0D7C7C"/>
<stop offset="0.641809" stop-color="#CEF0F0"/>
<stop offset="1" stop-color="#D2D2D2"/>
</radialGradient>
</defs>
</svg>
