<svg width="96" height="96" viewBox="0 0 96 96" fill="none" xmlns="http://www.w3.org/2000/svg">
<path d="M49.8018 4.07715C53.9454 8.08317 57.7482 12.4263 61.1729 17.0605C66.706 16.2401 72.296 15.8625 77.8896 15.9326L78.4619 15.9414L80.0117 15.9697L80.0381 17.5186C80.1363 23.2933 79.7535 29.0659 78.8965 34.7764C83.5442 38.2177 87.9007 42.0367 91.9209 46.1953L93 47.3115L91.9209 48.4268C87.6777 52.8157 83.0573 56.8236 78.1123 60.4033L78.1016 60.4111L78.0898 60.4189C76.0224 61.8642 73.864 63.1816 71.7588 64.1426C69.6717 65.0953 67.528 65.7479 65.5195 65.748C60.6879 65.7488 56.0486 63.8534 52.6006 60.4688C51.7411 59.625 50.9724 58.7053 50.3018 57.7256C51.4178 63.016 53.6238 68.0174 56.7861 72.4072L56.9082 72.5762C61.2996 78.6362 67.3375 83.3089 74.3057 86.0391L77.2598 87.1963L74.5771 88.8906C70.4487 91.4976 65.5872 92.698 60.7197 92.3135C56.3099 91.965 52.1092 90.3324 48.6309 87.6318C45.1525 90.3325 40.9518 91.965 36.542 92.3135C31.6745 92.6981 26.813 91.4975 22.6846 88.8906L20.0029 87.1973L22.9551 86.0391C29.9251 83.3061 35.9643 78.6297 40.3545 72.5654L40.4756 72.3984C43.7278 67.8849 45.972 62.725 47.0566 57.2686L47.1074 57.0957C46.3455 58.3124 45.4404 59.4469 44.3994 60.4688C40.9514 63.8535 36.3121 65.7488 31.4805 65.748C29.4677 65.748 27.3214 65.0956 25.2324 64.1426C23.1258 63.1815 20.9669 61.8643 18.8994 60.4189L18.8779 60.4033C13.9362 56.8232 9.31833 52.8153 5.07812 48.4268L4 47.3115L5.07812 46.1963C9.09843 42.0375 13.4547 38.2177 18.1025 34.7764C17.2456 29.0659 16.8637 23.2933 16.9619 17.5186L16.9873 15.9697L18.5371 15.9414C24.4216 15.8355 30.3045 16.2247 36.123 17.1045C39.5738 12.4538 43.4039 8.09582 47.5732 4.0752L48.6885 3L49.8018 4.07715ZM48.6299 63.6445C47.3001 67.4258 45.4335 71.0079 43.0781 74.2764L43.0771 74.2773L42.9551 74.4463V74.4473C38.8717 80.0878 33.4696 84.6187 27.2432 87.6582C30.0851 88.8522 33.1854 89.3595 36.2891 89.1143C40.4658 88.7842 44.424 87.1113 47.5713 84.3457L48.6309 83.4141L49.6904 84.3457C52.8377 87.1112 56.796 88.7842 60.9727 89.1143C64.0757 89.3594 67.1752 88.8518 70.0166 87.6582C63.792 84.6211 58.3907 80.0937 54.3066 74.457L54.3057 74.4551L54.1846 74.2871L54.1826 74.2852C51.826 71.014 49.9594 67.429 48.6299 63.6445ZM18.7617 38.2979C15.1372 41.0687 11.7019 44.0799 8.48047 47.3115C12.2845 51.1286 16.3888 54.6359 20.7539 57.7988C22.721 59.1731 24.7003 60.3718 26.5654 61.2227C28.4528 62.0836 30.1176 62.5391 31.4805 62.5391C35.4711 62.5397 39.3026 60.9733 42.1504 58.1777C44.1767 56.1886 45.5888 53.6899 46.2617 50.9766C43.2872 52.8572 39.8132 53.8636 36.2422 53.8311C31.4137 53.787 26.7948 51.8504 23.3789 48.4375C21.9575 47.016 20.9011 45.0385 20.0977 42.8887C19.5635 41.4593 19.1246 39.9039 18.7617 38.2979ZM78.2363 38.2979C77.8736 39.9037 77.4364 41.4594 76.9023 42.8887C76.0989 45.0386 75.0416 47.015 73.6201 48.4365C70.2042 51.8494 65.5853 53.787 60.7568 53.8311C57.186 53.8636 53.7118 52.8579 50.7373 50.9775C51.4103 53.6905 52.8226 56.1888 54.8486 58.1777C57.6964 60.9733 61.528 62.5387 65.5186 62.5381C66.8763 62.5381 68.539 62.0839 70.4258 61.2227C72.2912 60.3712 74.2718 59.1713 76.2402 57.7959C80.6068 54.6341 84.712 51.1277 88.5176 47.3115C85.296 44.0798 81.8609 41.0689 78.2363 38.2979ZM20.1562 19.1348C20.1478 24.522 20.57 29.9021 21.4189 35.2236L21.498 35.666C21.9033 37.8713 22.4307 39.9628 23.1045 41.7656C23.8298 43.7062 24.6847 45.204 25.6475 46.167L25.915 46.4277C28.7075 49.0842 32.4083 50.5858 36.2715 50.6211C39.1547 50.6474 41.9612 49.8537 44.3809 48.3672C43.8857 48.2471 43.3944 48.1095 42.9102 47.9473C40.2909 47.0833 37.8991 45.6412 35.9131 43.7275L35.6699 43.4932L35.6494 43.4736C33.9344 41.7644 32.5742 39.732 31.6475 37.4951C30.7209 35.2585 30.2454 32.8604 30.249 30.4395C30.2496 28.4271 30.9027 26.2859 31.8525 24.2021C32.4777 22.8307 33.2553 21.4377 34.1172 20.0596C29.4906 19.4315 24.8257 19.1224 20.1562 19.1348ZM76.8428 19.1348C72.2794 19.1227 67.7204 19.4179 63.1973 20.0176C64.0829 21.4204 64.8794 22.8412 65.5176 24.2393C66.4703 26.3264 67.1239 28.47 67.124 30.4785L67.123 30.7051C67.0656 35.4552 65.1757 40.0033 61.8438 43.3975C59.3548 45.9329 56.2066 47.6731 52.7939 48.4531L52.8027 48.4785C55.18 49.8932 57.9173 50.6467 60.7275 50.6211C64.5907 50.5858 68.2916 49.0841 71.084 46.4277L71.3516 46.167C72.3144 45.204 73.1702 43.7064 73.8955 41.7656C74.6127 39.8466 75.1633 37.6005 75.5781 35.2383C76.4286 29.912 76.8512 24.5269 76.8428 19.1348ZM48.6846 7.47852C44.8668 11.2748 41.3555 15.3683 38.1836 19.7207C36.817 21.6945 35.6222 23.6721 34.7734 25.5342C33.9143 27.4189 33.459 29.0788 33.459 30.4414V30.4443C33.456 32.4422 33.8486 34.4209 34.6133 36.2666C35.3774 38.111 36.4985 39.7865 37.9121 41.1963L38.1377 41.4131L38.1396 41.415C39.7277 42.9455 41.6299 44.1103 43.7129 44.8301L43.915 44.8984L43.9238 44.9014C45.1554 45.3147 46.3829 45.598 47.667 45.6826C47.685 45.6784 47.6994 45.679 47.7119 45.6855C47.8508 45.6942 47.9906 45.7022 48.1309 45.7061H48.9766C52.9627 45.6302 56.7606 43.9947 59.5537 41.1494C62.3492 38.3017 63.9146 34.47 63.9141 30.4795L63.9131 30.3506C63.8855 29.0169 63.432 27.4001 62.5977 25.5723C61.7461 23.7069 60.5463 21.7263 59.1709 19.7578C56.0086 15.3905 52.5015 11.2846 48.6846 7.47852Z" fill="#14b8a6"/>
</svg>
