<svg width="183" height="198" viewBox="0 0 183 198" fill="none" xmlns="http://www.w3.org/2000/svg">
<path d="M93.7686 2.20508C102.252 10.4065 110.037 19.2986 117.048 28.7861C128.376 27.1064 139.82 26.334 151.271 26.4775L152.442 26.4951L155.614 26.5527L155.669 29.7246C155.87 41.5474 155.087 53.3653 153.332 65.0566C162.847 72.1019 171.767 79.9197 179.997 88.4336L182.205 90.7178L179.997 93.001C171.31 101.986 161.85 110.191 151.726 117.52L151.704 117.536L151.682 117.551C147.449 120.51 143.03 123.207 138.72 125.175C134.446 127.125 130.057 128.462 125.945 128.462C118.352 128.463 110.992 126.174 104.788 121.977C104.584 122.195 104.383 122.416 104.185 122.64C101.083 126.125 98.6643 130.15 97.043 134.505C99.5799 142.228 103.292 149.536 108.066 156.163L108.315 156.508L109.168 157.662C118.021 169.429 129.954 178.53 143.658 183.958L153.294 182.677L148.461 185.843L149.98 186.438L144.489 189.907C139.944 192.777 134.965 194.813 129.783 195.961C123.762 197.838 117.39 198.414 111.094 197.622C103.992 196.729 97.2255 194.127 91.3672 190.058C85.5236 194.106 78.7797 196.695 71.7021 197.588C65.557 198.363 59.3383 197.836 53.4434 196.066C48.0871 194.94 42.938 192.867 38.251 189.907L32.7607 186.44L38.8057 184.069C53.075 178.474 65.4389 168.901 74.4268 156.485L74.6738 156.144C79.5019 149.443 83.2435 142.046 85.7832 134.228C84.1632 129.98 81.7835 126.051 78.748 122.64C78.4567 122.312 78.1595 121.99 77.8574 121.674C71.5629 126.064 64.034 128.463 56.2598 128.462C52.1391 128.462 47.7454 127.126 43.4688 125.175C39.1558 123.207 34.7357 120.51 30.5029 117.551L30.4805 117.536L30.458 117.52C20.3407 110.19 10.887 101.985 2.20605 93L0 90.7168L2.20703 88.4336C10.4373 79.9199 19.3562 72.1018 28.8711 65.0566C27.1165 53.3654 26.3341 41.5474 26.5352 29.7246L26.5889 26.5527L29.7617 26.4951C41.8096 26.2784 53.8538 27.0755 65.7666 28.877C72.8309 19.3562 80.6689 10.4331 89.2041 2.20215L91.4883 0L93.7686 2.20508ZM91.4658 164.496C90.0123 168.007 88.1076 171.329 85.7891 174.371C81.6731 179.772 76.3663 184.15 70.2822 187.165C67.4111 188.588 64.4023 189.687 61.3125 190.453C62.9035 190.52 64.5033 190.492 66.1035 190.365C74.6545 189.69 82.7578 186.265 89.2012 180.603L91.3701 178.696L93.5391 180.603C99.9824 186.265 108.086 189.69 116.637 190.365C118.29 190.496 119.943 190.521 121.586 190.445C118.508 189.679 115.511 188.583 112.65 187.165C106.566 184.15 101.26 179.772 97.1436 174.371C94.8249 171.329 92.9193 168.008 91.4658 164.496ZM88.1357 146.126C85.8682 150.976 83.1509 155.62 80.0029 159.988L80.001 159.991L79.752 160.336L79.75 160.339C72.332 170.586 62.7874 179.041 51.8252 185.164C57.2195 185 62.5198 183.677 67.3633 181.276C72.5417 178.71 77.0583 174.983 80.5615 170.387C84.0647 165.79 86.4611 160.448 87.5625 154.774C87.8696 153.192 88.0732 151.596 88.1748 149.996C88.1051 148.707 88.0924 147.415 88.1357 146.126ZM94.8076 146.581C94.8341 147.719 94.8183 148.858 94.7568 149.996C94.8585 151.596 95.063 153.192 95.3701 154.774C96.4716 160.448 98.8671 165.79 102.37 170.387C105.873 174.983 110.39 178.71 115.568 181.276C120.349 183.645 125.574 184.964 130.896 185.156C119.944 179.039 110.406 170.594 102.991 160.359L102.988 160.354L102.739 160.011L102.737 160.008C99.6841 155.77 97.0331 151.274 94.8076 146.581ZM91.1016 105.239C89.2138 109.768 86.4455 113.925 82.9072 117.451C83.1602 117.721 83.4108 117.995 83.6572 118.271C85.3842 120.212 86.9284 122.297 88.2803 124.496L91.373 108.941L94.5059 124.732C95.8921 122.446 97.4865 120.282 99.2754 118.271C99.4084 118.122 99.5419 117.973 99.6768 117.825C99.6173 117.768 99.5562 117.711 99.4971 117.653C95.8619 114.085 93.0251 109.854 91.1016 105.239ZM126.519 110.485C123.666 110.926 120.864 111.695 118.171 112.784C115.211 113.981 112.426 115.545 109.878 117.434C113.931 119.87 118.503 121.362 123.254 121.772C124.967 118.212 126.068 114.396 126.519 110.485ZM56.2109 110.456C56.658 114.362 57.7543 118.171 59.458 121.726C64.1821 121.239 68.7176 119.682 72.7246 117.191C70.2666 115.411 67.5933 113.929 64.7607 112.784C62.0036 111.67 59.1332 110.891 56.2109 110.456ZM49.5664 110.062C48.9958 110.079 48.425 110.109 47.8545 110.152C43.657 110.469 39.5536 111.489 35.7129 113.157C39.2713 115.563 42.8242 117.658 46.1963 119.196C48.3272 120.168 50.32 120.886 52.1465 121.336C50.7718 117.718 49.9017 113.924 49.5664 110.062ZM133.166 110.058C132.836 113.865 131.986 117.607 130.645 121.181C132.302 120.728 134.092 120.064 135.991 119.197C139.452 117.618 143.103 115.449 146.757 112.961C143.05 111.409 139.108 110.457 135.078 110.152C134.441 110.104 133.803 110.073 133.166 110.058ZM95.6836 98.2236C97.0615 103.778 99.9528 108.892 104.101 112.964C104.222 113.083 104.345 113.199 104.468 113.315C107.856 110.571 111.642 108.335 115.709 106.691C119.232 105.268 122.912 104.308 126.656 103.83C126.624 103.392 126.583 102.955 126.534 102.52C123.205 103.502 119.728 104.032 116.196 104.064C108.886 104.131 101.773 102.073 95.6836 98.2236ZM86.5195 98.2227C80.4303 102.072 73.3181 104.131 66.0078 104.064C62.6565 104.034 59.3549 103.557 56.1816 102.669C56.1412 103.047 56.1074 103.427 56.0791 103.807C59.8917 104.276 63.6391 105.243 67.2236 106.691C71.1321 108.271 74.7816 110.398 78.0674 112.997C78.0791 112.986 78.0919 112.975 78.1035 112.964C82.2514 108.892 85.1417 103.777 86.5195 98.2227ZM30.2188 72.2666C22.7994 77.9388 15.7672 84.1015 9.17285 90.7168C15.6164 97.1824 22.4815 103.212 29.7207 108.77C35.1665 105.831 41.1758 104.066 47.3594 103.6C48.0774 103.545 48.7957 103.509 49.5137 103.49C49.5895 102.411 49.7069 101.338 49.8652 100.271C46.1231 98.4543 42.6714 96.0173 39.6738 93.0225L39.6729 93.0215C36.7628 90.1114 34.6 86.0654 32.9551 81.6641C31.8616 78.7381 30.9617 75.5542 30.2188 72.2666ZM151.984 72.2666C151.242 75.5542 150.342 78.7381 149.249 81.6641C147.604 86.0655 145.44 90.1113 142.53 93.0215V93.0225C139.665 95.8855 136.385 98.2399 132.832 100.029C133.009 101.174 133.139 102.326 133.221 103.485C134.004 103.503 134.788 103.54 135.572 103.6C141.59 104.054 147.443 105.738 152.771 108.536C159.904 103.044 166.671 97.0924 173.029 90.7168C166.435 84.1017 159.404 77.9388 151.984 72.2666ZM117.994 83.1279C112.955 88.1006 106.657 91.5209 99.8438 93.0684C104.726 95.9903 110.356 97.5468 116.136 97.4941C119.239 97.4658 122.29 96.9728 125.198 96.0586C124.364 93.3371 123.2 90.7145 121.726 88.252C120.634 86.4286 119.383 84.7151 117.994 83.1279ZM64.8916 82.9531C63.3661 84.6731 62.0063 86.5447 60.835 88.5439C59.4153 90.9671 58.296 93.5407 57.4912 96.207C60.2526 97.0258 63.1369 97.4664 66.0674 97.4932C71.968 97.547 77.7135 95.9252 82.666 92.8838C81.6529 92.638 80.6489 92.3515 79.6582 92.0195C74.2959 90.2508 69.3999 87.2978 65.334 83.3799L64.8916 82.9531ZM53.9043 59.7402C51.6271 60.0989 49.043 60.9429 46.2119 62.2334C42.9454 63.7224 39.5058 65.7307 36.0459 68.0352C36.8437 72.1224 37.8506 75.9898 39.1113 79.3633C40.5962 83.3365 42.3473 86.4024 44.3184 88.374L44.8662 88.9082C46.842 90.7878 49.0405 92.3843 51.3975 93.6729C52.3344 90.7379 53.5948 87.9028 55.165 85.2227C56.714 82.5789 58.5423 80.1246 60.6094 77.8965C59.013 75.6325 57.668 73.1936 56.6025 70.6221C55.1616 67.1441 54.2544 63.4752 53.9043 59.7402ZM129.055 59.875C128.424 66.4406 126.083 72.7124 122.287 78.0732C124.197 80.1554 125.9 82.4326 127.363 84.876C128.983 87.5807 130.285 90.4483 131.255 93.4209C133.442 92.1777 135.488 90.6679 137.338 88.9082L137.885 88.374C139.856 86.4024 141.609 83.3368 143.094 79.3633C144.354 75.9903 145.362 72.1238 146.159 68.0371C142.699 65.7322 139.259 63.7226 135.992 62.2334C133.469 61.0833 131.143 60.2886 129.055 59.875ZM103.474 73.1826C102.824 76.7028 101.674 80.123 100.046 83.335C99.4563 84.5016 98.8033 85.6331 98.0947 86.7275C103.764 85.4975 109.015 82.7003 113.224 78.6055C111.813 77.4971 110.315 76.4926 108.741 75.6055C107.049 74.6515 105.286 73.8425 103.474 73.1826ZM78.7695 73.3652C77.0242 74.0301 75.328 74.8342 73.6982 75.7734C72.3008 76.5788 70.9651 77.4768 69.6982 78.458L69.8896 78.6426L69.8916 78.6455C73.143 81.7792 77.0379 84.1651 81.3027 85.6387L81.7168 85.7783L81.7334 85.7832C82.4638 86.0284 83.2028 86.2446 83.9482 86.4326C83.2941 85.4063 82.689 84.3477 82.1387 83.2588C80.5545 80.125 79.4237 76.7939 78.7695 73.3652ZM91.1973 71.0469C90.3076 71.0511 89.4202 71.0903 88.5371 71.1611C89.5284 72.7985 90.3935 74.5115 91.127 76.2852C91.8608 74.4993 92.7289 72.7749 93.7246 71.127C92.885 71.0709 92.0421 71.0428 91.1973 71.0469ZM122.463 59.7354C119.566 60.0576 116.723 60.7852 114.02 61.9053C110.995 63.1585 108.193 64.8817 105.714 67.0049C107.866 67.7879 109.957 68.7484 111.967 69.8809C113.886 70.9626 115.71 72.1902 117.425 73.5488C120.175 69.4214 121.908 64.6865 122.463 59.7354ZM60.5215 59.8369C60.8533 62.6737 61.5752 65.4571 62.6729 68.1064C63.442 69.9629 64.3893 71.7349 65.4961 73.4004C67.0508 72.1827 68.6945 71.0717 70.417 70.0791C72.4201 68.9247 74.5077 67.9423 76.6572 67.1377C74.1365 64.9579 71.2794 63.1925 68.1914 61.9141C65.7286 60.8945 63.1505 60.1991 60.5215 59.8369ZM91.1016 47.3154C89.4559 49.4658 88.092 51.8252 87.0518 54.3379C85.6468 57.7317 84.8555 61.3442 84.708 65.0078C86.8363 64.6657 88.9953 64.486 91.166 64.4756C93.2905 64.4654 95.405 64.6178 97.4922 64.9258C97.3362 61.2903 96.5468 57.7064 95.1523 54.3379C94.1121 51.825 92.7476 49.4658 91.1016 47.3154ZM33.0762 33.0322C33.0615 42.3656 33.6797 51.6888 34.9229 60.9375C37.7705 59.1527 40.6518 57.546 43.4863 56.2539C46.9724 54.6648 50.536 53.4825 53.9707 53.1025C54.433 49.9134 55.5539 46.6278 57.0215 43.4082C58.3011 40.6009 59.8901 37.7477 61.6543 34.9268C52.1835 33.6412 42.6348 33.0069 33.0762 33.0322ZM149.127 33.0322C139.786 33.0075 130.454 33.6135 121.195 34.8408C123.008 37.7122 124.637 40.6218 125.943 43.4834C127.418 46.713 128.539 50.0089 129 53.2012C132.196 53.6612 135.49 54.7828 138.718 56.2539C141.552 57.5457 144.432 59.1522 147.279 60.9365C148.522 51.6881 149.142 42.3653 149.127 33.0322ZM114.082 35.9629C110.012 36.7723 106.167 37.7813 102.811 39.0352C99.9718 40.0956 97.5982 41.29 95.7549 42.6016C98.0025 45.3951 99.8469 48.4987 101.224 51.8242C102.351 54.5478 103.15 57.3881 103.614 60.2852C106.05 58.4933 108.698 56.9966 111.504 55.834C114.963 54.4009 118.61 53.4956 122.324 53.1416C121.91 51.0579 121.116 48.7327 119.965 46.2119C118.46 42.915 116.422 39.4434 114.082 35.9629ZM68.7266 36.083C66.4542 39.504 64.4744 42.9035 63.002 46.1338C61.8234 48.7193 61.0167 51.0981 60.6123 53.2256C64.0745 53.6267 67.4719 54.5033 70.7051 55.8418C73.508 57.0022 76.1538 58.4944 78.5889 60.2803C79.0536 57.3848 79.8536 54.5463 80.9805 51.8242C82.3571 48.4988 84.2016 45.395 86.4492 42.6016C84.606 41.2901 82.2331 40.0956 79.3945 39.0352C76.2045 37.8435 72.5728 36.8712 68.7266 36.083ZM91.4814 9.16895C84.8314 15.7815 78.6368 22.836 72.9365 30.2812C75.9975 31.0012 78.9582 31.8572 81.6934 32.8789C85.1828 34.1825 88.449 35.8091 91.1035 37.875C93.7576 35.8099 97.0214 34.1821 100.51 32.8789C103.419 31.7923 106.583 30.8939 109.852 30.1465C104.207 22.7496 98.0712 15.74 91.4814 9.16895Z" fill="#2dd4bf"/>
</svg>
