<svg width="96" height="96" viewBox="0 0 96 96" fill="none" xmlns="http://www.w3.org/2000/svg">
<path d="M49.8018 4.07715C53.9454 8.08317 57.7482 12.4263 61.1729 17.0605C66.706 16.2401 72.296 15.8625 77.8896 15.9326L78.4619 15.9414L80.0117 15.9697L80.0381 17.5186C80.1363 23.2933 79.7535 29.0659 78.8965 34.7764C83.5442 38.2177 87.9007 42.0367 91.9209 46.1953L93 47.3115L91.9209 48.4268C87.6777 52.8157 83.0573 56.8236 78.1123 60.4033L78.1016 60.4111L78.0898 60.4189C76.0224 61.8642 73.864 63.1816 71.7588 64.1426C69.6717 65.0953 67.528 65.7479 65.5195 65.748C60.6879 65.7488 56.0486 63.8534 52.6006 60.4688C51.7411 59.625 50.9724 58.7053 50.3018 57.7256C51.4178 63.016 53.6238 68.0174 56.7861 72.4072L56.9082 72.5762C61.2996 78.6362 67.3375 83.3089 74.3057 86.0391L77.2598 87.1963L74.5771 88.8906C70.4487 91.4976 65.5872 92.698 60.7197 92.3135C56.3099 91.965 52.1092 90.3324 48.6309 87.6318C45.1525 90.3325 40.9518 91.965 36.542 92.3135C31.6745 92.6981 26.813 91.4975 22.6846 88.8906L20.0029 87.1973L22.9551 86.0391C29.9251 83.3061 35.9643 78.6297 40.3545 72.5654L40.4756 72.3984C43.7278 67.8849 45.972 62.725 47.0566 57.2686L47.1074 57.0957C46.3455 58.3124 45.4404 59.4469 44.3994 60.4688C40.9514 63.8535 36.3121 65.7488 31.4805 65.748C29.4677 65.748 27.3214 65.0956 25.2324 64.1426C23.1258 63.1815 20.9669 61.8643 18.8994 60.4189L18.8779 60.4033C13.9362 56.8232 9.31833 52.8153 5.07812 48.4268L4 47.3115L5.07812 46.1963C9.09843 42.0375 13.4547 38.2177 18.1025 34.7764C17.2456 29.0659 16.8637 23.2933 16.9619 17.5186L16.9873 15.9697L18.5371 15.9414C24.4216 15.8355 30.3045 16.2247 36.123 17.1045C39.5738 12.4538 43.4039 8.09582 47.5732 4.0752L48.6885 3L49.8018 4.07715ZM48.6299 63.6445C47.3001 67.4258 45.4335 71.0079 43.0781 74.2764L43.0771 74.2773L42.9551 74.4463V74.4473C38.8717 80.0878 33.4696 84.6187 27.2432 87.6582C30.0851 88.8522 33.1854 89.3595 36.2891 89.1143C40.4658 88.7842 44.424 87.1113 47.5713 84.3457L48.6309 83.4141L49.6904 84.3457C52.8377 87.1112 56.796 88.7842 60.9727 89.1143C64.0757 89.3594 67.1752 88.8518 70.0166 87.6582C63.792 84.6211 58.3907 80.0937 54.3066 74.457L54.3057 74.4551L54.1846 74.2871L54.1826 74.2852C51.826 71.014 49.9594 67.429 48.6299 63.6445ZM18.7617 38.2979C15.1372 41.0687 11.7019 44.0799 8.48047 47.3115C12.2845 51.1286 16.3888 54.6359 20.7539 57.7988C22.721 59.1731 24.7003 60.3718 26.5654 61.2227C28.4528 62.0836 30.1176 62.5391 31.4805 62.5391C35.4711 62.5397 39.3026 60.9733 42.1504 58.1777C44.1767 56.1886 45.5888 53.6899 46.2617 50.9766C43.2872 52.8572 39.8132 53.8636 36.2422 53.8311C31.4137 53.787 26.7948 51.8504 23.3789 48.4375V48.4365C21.9575 47.015 20.9011 45.0386 20.0977 42.8887C19.5635 41.4593 19.1246 39.9039 18.7617 38.2979ZM78.2363 38.2979C77.8736 39.9037 77.4364 41.4594 76.9023 42.8887C76.0989 45.0386 75.0416 47.015 73.6201 48.4365V48.4375C70.2042 51.8504 65.5853 53.787 60.7568 53.8311C57.186 53.8636 53.7118 52.8579 50.7373 50.9775C51.4103 53.6905 52.8226 56.1888 54.8486 58.1777C57.6964 60.9733 61.528 62.5387 65.5186 62.5381C66.8763 62.5381 68.539 62.0839 70.4258 61.2227C72.2912 60.3712 74.2718 59.1713 76.2402 57.7959C80.6068 54.6341 84.712 51.1277 88.5176 47.3115C85.296 44.0798 81.8609 41.0689 78.2363 38.2979ZM20.1562 19.1348C20.1478 24.522 20.57 29.9021 21.4189 35.2236L21.498 35.666C21.9033 37.8713 22.4307 39.9628 23.1045 41.7656C23.8298 43.7062 24.6847 45.204 25.6475 46.167L25.915 46.4277C28.7075 49.0842 32.4083 50.5858 36.2715 50.6211C39.1547 50.6474 41.9612 49.8537 44.3809 48.3672C43.8857 48.2471 43.3944 48.1095 42.9102 47.9473C40.2909 47.0833 37.8991 45.6412 35.9131 43.7275L35.6699 43.4932L35.6494 43.4736C33.9344 41.7644 32.5742 39.732 31.6475 37.4951C30.7209 35.2585 30.2454 32.8604 30.249 30.4395C30.2496 28.4271 30.9027 26.2859 31.8525 24.2021C32.4777 22.8307 33.2553 21.4377 34.1172 20.0596C29.4906 19.4315 24.8257 19.1224 20.1562 19.1348ZM76.8428 19.1348C72.2794 19.1227 67.7204 19.4179 63.1973 20.0176C64.0829 21.4204 64.8794 22.8412 65.5176 24.2393C66.4703 26.3264 67.1239 28.47 67.124 30.4785L67.123 30.7051C67.0656 35.4552 65.1757 40.0033 61.8438 43.3975C59.3548 45.9329 56.2066 47.6731 52.7939 48.4531L52.8027 48.4785C55.18 49.8932 57.9173 50.6467 60.7275 50.6211C64.5907 50.5858 68.2916 49.0841 71.084 46.4277L71.3516 46.167C72.3144 45.204 73.1702 43.7064 73.8955 41.7656C74.6127 39.8466 75.1633 37.6005 75.5781 35.2383C76.4286 29.912 76.8512 24.5269 76.8428 19.1348ZM59.7236 20.5664C57.7361 20.9617 55.858 21.4541 54.2188 22.0664C52.8319 22.5845 51.6719 23.1678 50.7715 23.8086C51.8695 25.1732 52.7708 26.689 53.4434 28.3135C54.3695 30.5506 54.8462 32.9489 54.8457 35.3701V35.7344C54.7982 38.5067 54.1217 41.2319 52.8682 43.7051C52.5801 44.2751 52.2603 44.8276 51.9141 45.3623C54.7962 44.7373 57.458 43.2843 59.5537 41.1494C62.3492 38.3017 63.9146 34.47 63.9141 30.4795L63.9131 30.3506C63.8855 29.0169 63.432 27.4001 62.5977 25.5723C61.8625 23.9619 60.8669 22.2665 59.7236 20.5664ZM37.5693 20.627C36.4599 22.2973 35.4924 23.9569 34.7734 25.5342C33.9143 27.4189 33.459 29.0788 33.459 30.4414V30.4443C33.456 32.4422 33.8486 34.4209 34.6133 36.2666C35.3774 38.111 36.4985 39.7865 37.9121 41.1963L38.1377 41.4131L38.1396 41.415C39.7277 42.9455 41.6299 44.1103 43.7129 44.8301L43.915 44.8984L43.9238 44.9014C44.2809 45.0212 44.6424 45.1259 45.0068 45.2178C44.6872 44.7164 44.3899 44.2 44.1211 43.668C42.8765 41.2059 42.2048 38.4946 42.1543 35.7363L42.1533 35.7207V35.3701C42.1528 32.9488 42.6295 30.5506 43.5557 28.3135C44.2282 26.689 45.1285 25.1722 46.2266 23.8076C45.3264 23.1672 44.1673 22.5842 42.7812 22.0664C41.223 21.4843 39.4482 21.012 37.5693 20.627ZM48.499 26.1113C47.6953 27.1616 47.0295 28.3139 46.5215 29.541C45.7566 31.3887 45.3629 33.3694 45.3633 35.3691V35.6895C45.4067 37.9604 45.9617 40.1926 46.9863 42.2197C47.4155 43.069 47.9269 43.8729 48.5098 44.6221C49.0803 43.8838 49.581 43.0927 50.0029 42.2578L50.0039 42.2559C51.0385 40.2153 51.5966 37.9662 51.6357 35.6787V35.3691C51.6362 33.3694 51.2424 31.3887 50.4775 29.541C49.9694 28.3137 49.303 27.1616 48.499 26.1113ZM48.6846 7.47852C45.4363 10.7085 42.4103 14.1543 39.626 17.791C41.1214 18.1427 42.5681 18.5604 43.9043 19.0596C45.6086 19.6963 47.2035 20.491 48.5 21.5C49.7964 20.4912 51.3908 19.6961 53.0947 19.0596C54.5156 18.5288 56.0616 18.0907 57.6582 17.7256C54.901 14.1123 51.9035 10.6883 48.6846 7.47852Z" fill="#14b8a6"/>
</svg>
